Patient4_TMGait_0pt5_02_left_14_EMG.mot
version=1
nRows=33
nColumns=33
inDegrees=no
endheader
time	1LAddLong	2LGlutMax	3LGlutMed	4LIliopsoas	5LSemiMemb	6LBicFemLong	7LRecFem	8LVastMed	9LVastLat	10LGasMed	11LTibAnt	12lTibPost	13LPeroneusLong	14LSol	15LExtDigLong	16LFlexDigLong	17RAddLong	18RGlutMax	19RGlutMed	20RIliopsoas	21RSemiMemb	22RBicFemLong	23RRecFem	24RVastMed	25RVastLat	26RGasMed	27RTibAnt	28RTibPost	29RPeroneusLong	30RSol	31RExtDigLong	32RFlexDigLong
18.08	0.002441	1.0017	-0.07431	0.000458	-0.022888	-0.041962	0.26718	-0.030518	-0.082703	0.38528	0.018921	0.10757	-0.078735	-0.22339	0.036621	0.012207	-0.1593	0.62042	0.25131	0.30273	-0.006409	-0.095215	0.60547	-0.050964	-0.008545	-0.012054	0.068359	0.001678	-0.015564	-0.029755	-0.001526	-0.001678
18.081	0.00412	1.055	-0.010834	0.005188	-0.099335	-0.11993	0.36209	-0.016632	-0.078888	0.67001	0.009155	0.11322	0.035553	-0.24719	0.035553	-0.15152	-0.17761	0.59845	0.28671	0.27908	0.00473	-0.18036	0.57144	-0.085144	-0.011902	0.001068	0.060272	-0.012512	-0.027161	-0.10819	-0.003967	-0.007019
18.082	0.008698	1.0641	-0.002136	0.007324	-0.016785	-0.00824	0.37445	-0.015106	-0.095215	0.60104	0.016937	0.1358	-0.24078	-0.14938	0.059814	-0.062103	-0.10788	0.62149	0.37949	0.20416	0.05661	-0.3093	0.57281	-0.09201	-0.020142	-0.007629	0.063019	-0.005798	-0.054474	-0.13306	-0.002747	-0.004272
18.083	0.013733	0.99136	-0.1506	-0.003052	0.079956	0.027313	0.30624	-0.009613	-0.12909	0.22797	0.019226	0.2684	-0.64804	-0.13443	0.095825	-0.053253	-0.059814	0.62225	0.35538	0.054932	0.032501	-0.32013	0.54291	-0.041351	-0.013123	-0.003662	0.08728	-0.013733	-0.076904	-0.068665	-0.001831	-0.011292
18.084	0.026245	0.94498	-0.24155	-0.003815	0.070343	0.049744	0.18066	-0.007782	-0.12238	0.036621	0.041046	-0.042267	-0.54672	-0.24307	0.10696	-0.45807	0.005951	0.58807	0.39597	-0.040741	0.022736	-0.14053	0.49606	0.00473	-0.000153	-0.006561	0.13794	-0.016785	-0.074768	0.083923	-0.003052	-0.011292
18.085	0.042267	0.98206	-0.36682	-0.002747	0.054474	0.14084	0.16678	-0.004272	-0.047913	0.13016	0.005188	-0.046082	-0.13168	-0.40939	0.077209	-0.42084	0.023651	0.56046	0.42007	-0.11765	0.006256	-0.061188	0.51331	-0.029449	-0.00351	-0.000763	0.13092	-0.015259	-0.1355	0.022278	-0.005951	-0.010681
18.086	0.029144	0.9932	-0.46738	-0.011444	-0.00946	0.23636	0.24582	0.00412	-0.037842	0.11612	-0.003357	0.081482	0.069122	-0.39459	0.057678	0.33463	0.04425	0.51895	0.43686	-0.11597	-0.054932	-0.076294	0.49225	0.002441	0.002136	0.002441	0.076294	-0.015564	-0.082703	-0.12405	-0.001373	-0.019836
18.087	0.018616	0.98419	-0.29938	0.020752	-0.054016	0.23056	0.27008	0.016174	0.005188	0.02655	-0.048218	0.17014	-0.03891	-0.29968	0.048065	1.1699	0.031433	0.53223	0.46066	-0.085602	-0.088043	0.061951	0.50491	-0.028534	0.002136	0.002747	-0.10803	-0.015564	0.002594	-0.1355	0	-0.014954
18.088	0.019073	0.97092	-0.098572	0.008545	-0.085144	0.17303	0.18036	0.016937	0.007324	-0.3801	0.009308	0.63004	-0.19165	-0.16968	0.001068	-0.63248	0.03067	0.49957	0.46692	-0.10162	-0.098877	0.19058	0.47897	-0.042877	-0.006561	-0.007477	-0.19775	-0.00885	-0.042725	-0.09491	-0.002747	-0.014801
18.089	0.026245	0.90576	0.18646	0.006561	-0.096893	-0.042877	0.1236	0.004578	0.014801	-0.13748	-0.016937	-0.51682	0.090942	0.01236	-0.04837	0.12619	0.027161	0.50003	0.44952	-0.10727	-0.10941	0.242	0.52597	-0.066833	-0.020294	-0.00946	0.034332	-0.008545	-0.015717	-0.037537	-0.002747	-0.005341
18.09	0.024261	0.74631	0.11871	0.011902	-0.044556	-0.23483	0.14358	0.012665	-0.015259	-0.074463	0.012207	0.20126	0.17166	0.30197	-0.018005	0.21362	0.030212	0.45258	0.40466	-0.081024	-0.13382	0.19119	0.52795	-0.082703	-0.010529	-0.012817	0.2388	-0.009308	-0.011139	-0.022125	-0.001068	-0.011139
18.091	0.00946	0.62515	0.056763	0.015717	-0.00946	-0.15732	0.14908	0.010681	0.017853	-0.5368	0.002136	0.056763	0.41382	0.13367	-0.025482	0.41702	0.001984	0.31616	0.34576	-0.049286	-0.13123	0.073395	0.48538	-0.069122	-0.009308	-0.007782	0.56595	-0.010834	-0.061493	0.007629	-0.000153	-0.009613
18.092	-0.000916	0.61645	-0.055237	-0.002747	0.002899	-0.006409	0.005341	0.005646	0.069885	-0.57617	0.002747	-0.005035	0.42587	-0.18265	-0.062408	-0.080261	-0.003357	0.30945	0.26733	-0.021515	-0.12665	-0.089111	0.44952	-0.11292	0.016937	-0.007019	0.78796	-0.003204	-0.12589	0.041656	-0.000153	-0.009308
18.093	-0.015869	0.58624	-0.14542	0.014191	-0.029449	-0.1088	0.028839	0.00351	-0.024261	-0.27237	0.011444	-0.052948	0.24216	-0.23758	-0.10239	-0.066376	0.031891	0.26077	0.23666	-0.054321	-0.079651	-0.084839	0.46387	-0.14358	-0.001678	-0.003967	0.32944	-0.00824	-0.047607	-0.018616	0.000916	-0.001526
18.094	-0.031433	0.55145	-0.19165	0.005341	-0.059052	0.08255	-0.003967	0.000916	0.043335	0.09491	0.017853	0.042267	0.17838	-0.43198	-0.086365	-0.066223	0.032654	0.16266	0.25055	-0.001678	-0.015106	-0.036316	0.43045	-0.064392	0.014954	0.003967	-0.47638	-0.003204	0.017853	-0.11154	-0.000916	0.000763
18.095	-0.022278	0.40085	-0.10834	0.021362	-0.085144	0.14526	-0.04364	0.006409	0.15579	0.22018	0.023346	-0.077515	0.21164	-0.53574	-0.033569	-0.040131	0.06958	0.094147	0.25131	0.01358	-0.023804	-0.093536	0.41031	-0.063934	0.01358	0.011902	-0.95993	-0.003967	0.006714	-0.16663	0.000763	-0.006256
18.096	-0.011444	0.30884	0.002899	0.011139	-0.12711	0.1651	-0.11643	0.004883	0.073547	-0.15961	0.016174	-0.13534	0.24689	-0.4216	-0.020752	0.019989	0.074768	0.083923	0.30121	0.14175	-0.019836	-0.098572	0.42572	-0.028381	0.004578	0.009766	-1.1423	-0.002899	0.062714	-0.15488	0.003815	-0.008698
18.097	0.018921	0.22583	0.062256	0.021362	-0.058289	0.09079	-0.17838	0.012665	0.038757	-0.34286	0.00946	-0.083618	0.3363	0.11566	-0.002441	0.024567	0.050507	0.080872	0.29999	0.22598	-0.001984	-0.075531	0.42954	-0.028534	0.019226	0.006104	-0.25833	-0.00885	0.063629	-0.18433	-0.000305	-0.006104
18.098	0.036163	0.21683	-0.070496	-0.005341	0.043488	0.23102	-0.18143	0.007629	0.046692	-0.013428	-0.018921	-0.096436	0.19455	0.44296	0.024872	-0.047607	0.022736	0.005035	0.22095	0.045013	0.000916	0.096741	0.42404	-0.021515	-0.013428	0.011139	0.57388	-0.005951	0.080109	-0.23285	-0.001678	-0.007782
18.099	0.027924	0.29236	-0.013885	-0.003967	0.010834	0.36392	-0.2829	0.017395	0.11414	0.19928	-0.020447	-0.067902	0.10101	0.33417	0.015564	-0.022888	0.057831	-0.07782	0.23636	-0.14404	-0.020447	0.24124	0.45761	-0.033264	-0.017395	0.010529	0.35065	-0.005035	0.12436	-0.16495	-0.001831	-0.019836
18.1	0.020142	0.35309	0.16907	0.024261	-0.003052	0.3714	-0.40894	0.009613	0.11841	0.04715	-0.031891	-0.049133	0.87677	0.22095	0.04715	-0.018616	0.034027	-0.066071	0.26199	-0.15533	-0.057983	0.29541	0.45151	-0.080261	-0.010986	-0.001221	-0.044098	-0.008392	0.014496	-0.046844	-0.003357	-0.012207
18.101	0.000153	0.35034	0.11551	0.005798	-0.023956	0.41	-0.53238	0.016785	0.18112	-0.052185	-0.020905	-0.06012	0.58166	0.22324	0.046844	-0.007172	-0.017395	-0.070343	0.2034	-0.11337	-0.03479	0.23361	0.43533	-0.066833	0	-0.006714	0.3331	-0.001526	-0.11704	-0.053406	0.00885	-0.021515
18.102	-0.011597	0.35278	-0.034332	0.021362	-0.054626	0.25971	-0.62546	0.028687	0.17425	-0.049591	-0.017548	-0.055847	-0.052185	0.25742	-0.014648	-0.033417	-0.064545	-0.11002	0.15396	0.12451	-0.007324	0.12634	0.39108	-0.073242	-0.002899	-0.005646	0.625	-0.008698	-0.093079	-0.062866	0.000916	-0.014343
18.103	-0.001526	0.42267	0.04837	0.025787	-0.05249	0.26138	-0.79056	0.0383	0.077362	-0.16449	0.025635	-0.05661	-0.14725	0.25665	-0.066528	-0.019989	-0.067139	-0.25665	0.20218	0.28366	-0.011444	0.041046	0.39505	-0.051727	-0.004883	-0.003204	0.70801	-0.005035	-0.11734	-0.10071	-0.00412	-0.01358
18.104	0.006714	0.47226	0.073242	0.006866	-0.068817	0.24094	-1.0197	0.035553	0.11032	-0.29862	0.045776	-0.059204	0.33386	0.17868	-0.11536	-0.025177	-0.021667	-0.26489	0.16083	0.31036	0.008698	0.014954	0.39078	-0.09613	-0.011444	-0.010071	0.50323	-0.002899	-0.095978	-0.090485	-0.002899	-0.010834
18.105	0.01236	0.54291	0.11704	0.010223	-0.094604	-0.25925	-0.95078	0.02121	-0.12421	-0.1796	0.04776	-0.055695	0.60806	0.22125	-0.27329	-0.001984	-0.006409	-0.33752	0.099792	0.096283	0.003662	-0.10559	0.3569	-0.065308	-0.015564	-0.007935	-0.52856	0.000763	0.10483	-0.003662	-0.00061	-0.00351
18.106	-0.001984	0.53375	0.19211	0.000153	-0.046082	-0.57754	-0.88196	-0.000458	-0.42633	-0.16769	0.061035	-0.069885	-0.14633	0.12039	-0.39597	-0.013123	0.015259	-0.38956	0.10681	-0.14999	-0.002289	-0.17761	0.34607	-0.11276	0.00412	-0.010681	-0.9285	-0.002747	0.071259	0.03418	0.003662	-0.008087
18.107	-0.001526	0.49439	0.1413	0	0.092163	-0.89371	-0.94086	-0.001678	-0.42893	0.15442	0.063324	-0.062408	-0.66803	0.067139	-0.28595	-0.024109	0.056915	-0.44373	0.082703	-0.08606	-0.052338	-0.18631	0.30273	-0.121	0.001984	-0.011597	-0.83374	-0.003357	0.009003	-0.003662	0.001526	-0.00946
18.108	-0.001678	0.42969	-0.1181	-0.002441	0.078735	-0.746	-0.94147	-0.005798	-0.23911	0.13123	0.043488	-0.055542	-0.38376	0.11765	-0.035095	-0.023499	0.075226	-0.45914	0.031128	0.002136	-0.064392	-0.12177	0.29419	-0.063629	0.00824	-0.009766	-0.16266	-0.00351	-0.022125	-0.031433	0.001984	-0.009918
18.109	0.000916	0.44815	-0.12146	-0.001373	0.018768	-0.19241	-0.94254	0.003357	-0.023499	0.075226	0.003967	-0.046082	-0.45166	0.22201	0.25986	0.000763	0.092468	-0.47836	0.002441	0.084229	-0.11276	-0.081482	0.29236	-0.045624	0.011292	-0.004578	0.30151	0.002594	0.029755	-0.053406	0.001678	-0.002136
18.11	0.011139	0.47394	-0.17517	0.008545	-0.076599	-0.026855	-0.84564	-0.004578	0.010529	-0.026245	-0.01709	-0.04303	-0.23789	-0.011444	0.31937	-0.010529	0.046692	-0.49728	0.023956	-0.068054	-0.098572	0.085297	0.24674	-0.040894	0.011902	-0.006409	0.36148	-0.001678	-0.00412	0.019073	0.003204	-0.006561
18.111	0.033722	0.42618	-0.31708	0.026245	-0.10162	0.068512	-0.62302	-0.010681	0.014343	0.1796	-0.008392	-0.04715	0.19516	-0.050201	0.2063	-0.004425	0.014648	-0.50339	-0.049286	-0.061035	-0.010071	0.21454	0.27054	-0.039368	0.013275	-0.00946	0.29373	-0.001526	-0.091858	0.019379	0.000458	-0.007324
18.112	0.035706	0.3508	-0.11566	-0.011139	0.027161	0.11017	-0.49698	-0.019989	0.025177	0.54169	-0.005798	-0.045471	0.20798	-0.14114	0.074768	-0.007782	0.00412	-0.48538	-0.072632	-0.008392	0.020142	0.13672	0.24323	-0.097656	-0.003357	-0.013733	0.10315	-0.003052	-0.10605	0.050201	-0.003052	-0.009155
